# xmcd CD database file generated by Grip 3.2.0
# 
# Track frame offsets:
#       150
#       16476
#       30606
#       40393
#       53863
#       76422
#       92496
#       104480
#       115872
#       128314
#       147517
#       158740
#       171537
#       182437
#       189666
#       209139
#       230987
#       246626
#       257360
#       270876
#       286177
#       296847
# 
# Disc length: 4305 seconds
# 
# Revision: 3
# Processed by: cddbd v1.5.2PL0 Copyright (c) Steve Scherf et al.
# Submitted via: Grip 3.2.0
# 
DISCID=4410cf16
DTITLE=Nina Simone - The Greatest Hits
DYEAR=2003
DGENRE=Jazz
TTITLE0=My Baby Just Cares For Me [Donaldson-Kahn]
TTITLE1=I Wish I Knew How It Would Feel To Be Free [William Taylor-Richard Lam
TTITLE1=b]
TTITLE2=Ain't Got No - I Got Life [Ragni-Rado-MacDermot]
TTITLE3=Nobody's Fault But Mine [N.Simone]
TTITLE4=Mr. Bojangles [Walker]
TTITLE5=Here Comes The Sun [George Harrison]
TTITLE6=To Love Somebody [Barry/Robin Gibb]
TTITLE7=I Want A Little Sugar In My Bowl [N.Simone]
TTITLE8=Do I Move You [N.Simone]
TTITLE9=My Man's Gone Now [Heyward-Gershwin-Gershwin]
TTITLE10=Backlash Blues [Langston Hughes-Nina Simone]
TTITLE11=Since I Fell For You [Buddy Johnson]
TTITLE12=Turn Me On [John D. Loudermilk]
TTITLE13=Compensation [Dunbar-Simone]
TTITLE14=Suzanne [Cohen]
TTITLE15=Just Like A Woman [Bob Dylan]
TTITLE16=Let It Be Me [Curtis-Becaud-Delanoe]
TTITLE17=In The Morning [Gibb]
TTITLE18=Do What You Gotta Do [Webb]
TTITLE19=Save Me [A. Franklin-C. Franklin-C. Ousley]
TTITLE20=The Look Of Love [Bacharach-David]
TTITLE21=Why? (The King Of Love Is Dead) [Taylor]
EXTD=YEAR: 2003
EXTT0=
EXTT1=
EXTT2=
EXTT3=
EXTT4=
EXTT5=
EXTT6=
EXTT7=
EXTT8=
EXTT9=
EXTT10=
EXTT11=
EXTT12=
EXTT13=
EXTT14=
EXTT15=
EXTT16=
EXTT17=
EXTT18=
EXTT19=
EXTT20=
EXTT21=
PLAYORDER=
